<svg width="47" height="47" viewBox="0 0 47 47" fill="none" xmlns="http://www.w3.org/2000/svg">
<circle cx="23.5" cy="23.5" r="23" stroke="black"/>
<path d="M21.6094 16.1875C21.6094 17.2188 21.4427 18.2552 21.1094 19.2969C20.7865 20.3385 20.3281 21.3125 19.7344 22.2188C19.151 23.125 18.4479 23.9323 17.625 24.6406C16.8021 25.349 15.901 25.8854 14.9219 26.25C14.9844 27.1146 15.0573 27.974 15.1406 28.8281C15.224 29.6823 15.3385 30.5417 15.4844 31.4062C15.5156 31.5625 15.5469 31.724 15.5781 31.8906C15.6198 32.0573 15.6406 32.2292 15.6406 32.4062C15.6406 32.6771 15.5729 32.8594 15.4375 32.9531C15.3021 33.0469 15.1094 33.0938 14.8594 33.0938C14.6823 33.0938 14.4688 33.0729 14.2188 33.0312C13.9688 32.9896 13.7552 32.9271 13.5781 32.8438C13.3698 32.7292 13.2292 32.6146 13.1562 32.5C13.0938 32.375 13.0469 32.2083 13.0156 32C12.8385 31.1146 12.7292 30.2292 12.6875 29.3438C12.6562 28.4583 12.6094 27.5729 12.5469 26.6875C12.3385 26.6667 12.1667 26.6146 12.0312 26.5312C11.8958 26.4375 11.8281 26.2812 11.8281 26.0625C11.8281 25.8542 11.8854 25.6354 12 25.4062C12.125 25.1771 12.2656 25 12.4219 24.875C12.3281 22.9375 12.2865 21.0156 12.2969 19.1094C12.3177 17.2031 12.3177 15.2812 12.2969 13.3438C12.2448 13.3646 12.1979 13.3802 12.1562 13.3906C12.1146 13.401 12.0677 13.4062 12.0156 13.4062C11.901 13.4062 11.8073 13.3802 11.7344 13.3281C11.6615 13.2656 11.599 13.1927 11.5469 13.1094C11.5052 13.026 11.474 12.9375 11.4531 12.8438C11.4323 12.7396 11.4219 12.6458 11.4219 12.5625C11.4219 12.25 11.5 12.026 11.6562 11.8906C11.8125 11.7448 12.026 11.6146 12.2969 11.5C12.2969 11.3854 12.2969 11.2552 12.2969 11.1094C12.3073 10.9531 12.3281 10.8125 12.3594 10.6875C12.401 10.5521 12.4635 10.4427 12.5469 10.3594C12.6302 10.2656 12.7552 10.2188 12.9219 10.2188C13.1927 10.2188 13.4531 10.2708 13.7031 10.375C13.9531 10.4792 14.1406 10.6562 14.2656 10.9062C14.6302 10.8438 14.9844 10.7865 15.3281 10.7344C15.6719 10.6823 16.026 10.6562 16.3906 10.6562C17.2135 10.6562 17.9479 10.7969 18.5938 11.0781C19.2396 11.349 19.7865 11.7344 20.2344 12.2344C20.6823 12.724 21.0208 13.3073 21.25 13.9844C21.4896 14.6615 21.6094 15.3958 21.6094 16.1875ZM19.2656 15.9062C19.2656 15.4271 19.2031 14.9792 19.0781 14.5625C18.9531 14.1354 18.7656 13.7708 18.5156 13.4688C18.2656 13.1562 17.9479 12.9115 17.5625 12.7344C17.1771 12.5573 16.724 12.4688 16.2031 12.4688C15.9219 12.4688 15.6354 12.4896 15.3438 12.5312C15.0625 12.5729 14.7865 12.6354 14.5156 12.7188C14.5156 14.625 14.526 16.5156 14.5469 18.3906C14.5781 20.2656 14.651 22.1458 14.7656 24.0312C15.4323 23.6875 16.0417 23.2083 16.5938 22.5938C17.1458 21.9792 17.6198 21.3021 18.0156 20.5625C18.4115 19.8125 18.7188 19.0365 18.9375 18.2344C19.1562 17.4219 19.2656 16.6458 19.2656 15.9062ZM34.875 20.8438C34.875 21.3125 34.7552 21.6458 34.5156 21.8438C34.276 22.0312 33.9375 22.1667 33.5 22.25C33.5938 23.8542 33.651 25.4479 33.6719 27.0312C33.7031 28.6146 33.7188 30.2083 33.7188 31.8125C33.7188 32.0625 33.6667 32.2552 33.5625 32.3906C33.4583 32.526 33.2708 32.5938 33 32.5938C32.7708 32.5938 32.5417 32.5677 32.3125 32.5156C32.0938 32.4635 31.8958 32.3854 31.7188 32.2812C31.5417 32.1667 31.3958 32.0208 31.2812 31.8438C31.1771 31.6562 31.125 31.4271 31.125 31.1562V26.2812C31.125 25.6667 31.125 25.0521 31.125 24.4375C31.125 23.8229 31.1146 23.2083 31.0938 22.5938C30.1979 22.7188 29.3021 22.8281 28.4062 22.9219C27.5104 23.0052 26.6146 23.0625 25.7188 23.0938C25.75 25.3125 25.8125 27.5312 25.9062 29.75C25.9375 30.2083 25.9688 30.6562 26 31.0938C26.0417 31.5312 26.0625 31.9688 26.0625 32.4062C26.0625 32.6146 26.0052 32.7708 25.8906 32.875C25.776 32.9792 25.6146 33.0312 25.4062 33.0312C25.25 33.0312 25.0833 33.0208 24.9062 33C24.7292 32.9688 24.5521 32.9219 24.375 32.8594C24.2083 32.7969 24.0521 32.7188 23.9062 32.625C23.7604 32.5312 23.6458 32.4167 23.5625 32.2812C23.5312 32.2292 23.5052 32.0729 23.4844 31.8125C23.4635 31.5521 23.4427 31.224 23.4219 30.8281C23.4115 30.4323 23.401 29.9844 23.3906 29.4844C23.3802 28.9844 23.375 28.4688 23.375 27.9375C23.375 27.4062 23.375 26.8854 23.375 26.375C23.375 25.8542 23.375 25.375 23.375 24.9375C23.375 24.5 23.375 24.1198 23.375 23.7969C23.375 23.474 23.375 23.25 23.375 23.125C23.2292 23.125 23.099 23.0938 22.9844 23.0312C22.8698 22.9583 22.8125 22.8438 22.8125 22.6875C22.8125 22.5 22.8646 22.3229 22.9688 22.1562C23.0833 21.9792 23.2188 21.8333 23.375 21.7188V12.2812C23.375 12.0729 23.4115 11.9062 23.4844 11.7812C23.5677 11.6562 23.7188 11.5938 23.9375 11.5938C24.2917 11.5938 24.5729 11.6458 24.7812 11.75C25 11.8542 25.1615 12 25.2656 12.1875C25.3802 12.3646 25.4531 12.5833 25.4844 12.8438C25.526 13.0938 25.5521 13.3646 25.5625 13.6562C25.5938 14.9271 25.6146 16.1979 25.625 17.4688C25.6354 18.7396 25.6562 20.0104 25.6875 21.2812C26.5833 21.1979 27.474 21.1146 28.3594 21.0312C29.2448 20.9375 30.1354 20.8021 31.0312 20.625C30.9792 19.5208 30.9115 18.4271 30.8281 17.3438C30.7552 16.2604 30.6458 15.1667 30.5 14.0625C30.4167 13.5417 30.3177 13.026 30.2031 12.5156C30.0885 11.9948 30.0312 11.4688 30.0312 10.9375C30.0312 10.75 30.099 10.6302 30.2344 10.5781C30.3802 10.526 30.5312 10.5 30.6875 10.5C30.9375 10.5 31.1875 10.5417 31.4375 10.625C31.6979 10.7083 31.9062 10.8542 32.0625 11.0625C32.1562 11.1979 32.2552 11.4844 32.3594 11.9219C32.4635 12.349 32.5573 12.8594 32.6406 13.4531C32.7344 14.0469 32.8229 14.6875 32.9062 15.375C32.9896 16.0625 33.0625 16.724 33.125 17.3594C33.1875 17.9844 33.2396 18.5521 33.2812 19.0625C33.3333 19.5625 33.3646 19.9271 33.375 20.1562C33.5 20.125 33.6302 20.099 33.7656 20.0781C33.901 20.0469 34.0312 20.0312 34.1562 20.0312C34.4062 20.0312 34.5885 20.1094 34.7031 20.2656C34.8177 20.4115 34.875 20.6042 34.875 20.8438Z" fill="black"/>
</svg>
